<?xml version="1.0" encoding="UTF-8" standalone="no"?>
<!DOCTYPE svg PUBLIC "-//W3C//DTD SVG 1.1//EN"
 "http://www.w3.org/Graphics/SVG/1.1/DTD/svg11.dtd">
<!-- Generated by graphviz version 8.1.0 (20230707.0739)
 -->
<!-- Title: G Pages: 1 -->
<svg width="162pt" height="153pt"
 viewBox="0.00 0.00 161.76 153.00" xmlns="http://www.w3.org/2000/svg" xmlns:xlink="http://www.w3.org/1999/xlink">
<g id="graph0" class="graph" transform="scale(1 1) rotate(0) translate(4 149)">
<title>G</title><style>.edge>path:hover{stroke-width:8}</style>
<polygon fill="white" stroke="none" points="-4,4 -4,-149 157.76,-149 157.76,4 -4,4"/>
<!-- file_system -->
<g id="node1" class="node">
<title>file_system</title><style>.edge>path:hover{stroke-width:8}</style>
<ellipse fill="#b65353" stroke="black" cx="39.39" cy="-127" rx="39.39" ry="18"/>
<text text-anchor="middle" x="39.39" y="-123.5" font-family="Helvetica,sans-Serif" font-size="10.00" fill="#ffffff">file_system</text>
</g>
<!-- main_py -->
<g id="node2" class="node">
<title>main_py</title><style>.edge>path:hover{stroke-width:8}</style>
<ellipse fill="#569f56" stroke="black" cx="123.39" cy="-18" rx="30.37" ry="18"/>
<text text-anchor="middle" x="123.39" y="-14.5" font-family="Helvetica,sans-Serif" font-size="10.00" fill="#000000">main.py</text>
</g>
<!-- file_system&#45;&gt;main_py -->
<g id="edge1" class="edge">
<title>file_system&#45;&gt;main_py</title><style>.edge>path:hover{stroke-width:8}</style>
<path fill="none" stroke="black" d="M123.39,-72C126.05,-64.19 126.85,-55.34 126.76,-47.14"/>
<polygon fill="#b65353" stroke="black" points="130.2,-46.96 126.14,-37.17 123.21,-47.35 130.2,-46.96"/>
<path fill="none" stroke="black" d="M66.28,-113.67C89.19,-102.41 119.08,-85.65 123.39,-73"/>
</g>
<!-- ui -->
<g id="node3" class="node">
<title>ui</title><style>.edge>path:hover{stroke-width:8}</style>
<ellipse fill="#5353b6" stroke="black" cx="123.39" cy="-127" rx="27" ry="18"/>
<text text-anchor="middle" x="123.39" y="-123.5" font-family="Helvetica,sans-Serif" font-size="10.00" fill="#ffffff">ui</text>
</g>
<!-- ui&#45;&gt;main_py -->
<g id="edge2" class="edge">
<title>ui&#45;&gt;main_py</title><style>.edge>path:hover{stroke-width:8}</style>
<path fill="none" stroke="black" d="M120.63,-108.83C119.59,-98.23 119.47,-84.5 123.39,-73"/>
</g>
</g>
</svg>
